<svg width="242" height="142.5" viewBox="0 0 242 142.5" fill="none"
    xmlns="http://www.w3.org/2000/svg">
    <g id="Orchestrator" clip-path="url(#clip0_113308_336371)">
        <g id="Group 427320281">
            <g id="Group 427320279">
                <path id="Vector 34" d="M117.563 39.0898L101.549 66.5" stroke="#B3B0AD" stroke-width="2" stroke-linecap="round"/>
                <path id="Line 6" d="M112 82L170.012 54.0117" stroke="#B3B0AD" stroke-width="2" stroke-linecap="round"/>
                <path id="Line 23" d="M119 101L176.567 102.634" stroke="#B3B0AD" stroke-width="2" stroke-linecap="round"/>
                <path id="Vector" d="M143.859 35.5558L143.85 38.68C143.84 42.1885 141.524 45.6917 136.897 48.3685C127.589 53.754 112.438 53.7541 103.064 48.3659C98.3459 45.6541 95.9899 42.0942 96 38.5402L96.0089 35.416C95.9988 38.97 98.3549 42.5298 103.073 45.2417C112.447 50.63 127.597 50.6299 136.906 45.2444C141.533 42.5675 143.849 39.0643 143.859 35.5558Z" fill="#C8C8C8"/>
                <path id="Vector_2" d="M136.794 26.4551C146.171 31.8745 146.22 40.6615 136.905 46.081C127.594 51.4976 112.441 51.4977 103.065 46.0783C93.689 40.6589 93.6396 31.8719 102.95 26.4554C112.265 21.0358 127.418 21.0357 136.794 26.4551Z" fill="white"/>
                <path id="Vector_3" d="M187.004 95.8136L186.995 98.9378C186.985 102.446 184.669 105.949 180.042 108.626C170.733 114.012 155.583 114.012 146.209 108.624C141.491 105.912 139.135 102.352 139.145 98.798L139.154 95.6738C139.144 99.2278 141.5 102.788 146.218 105.499C155.592 110.888 170.742 110.888 180.051 105.502C184.678 102.825 186.994 99.3221 187.004 95.8136Z" fill="#C8C8C8"/>
                <path id="Vector_4" d="M179.939 86.7129C189.315 92.1323 189.365 100.919 180.05 106.339C170.739 111.755 155.586 111.756 146.21 106.336C136.834 100.917 136.784 92.1297 146.095 86.7132C155.41 81.2936 170.563 81.2935 179.939 86.7129Z" fill="white"/>
                <path id="shadow in rectangle" d="M151.512 93L172.609 98.6529L170.097 108.028L149 102.375L151.512 93Z" fill="url(#paint0_radial_113308_336371)"/>
                <path id="Vector_5" d="M196.633 50.6222L196.624 53.7464C196.614 57.2549 194.298 60.7581 189.671 63.4349C180.362 68.8205 165.212 68.8205 155.838 63.4323C151.12 60.7205 148.764 57.1606 148.774 53.6066L148.783 50.4824C148.773 54.0364 151.129 57.5962 155.847 60.3081C165.221 65.6964 180.371 65.6963 189.68 60.3108C194.307 57.6339 196.623 54.1307 196.633 50.6222Z" fill="#C8C8C8"/>
                <path id="Vector_6" d="M189.794 41.0645C199.171 46.4838 199.22 55.2709 189.905 60.6904C180.594 66.107 165.441 66.1071 156.065 60.6877C146.689 55.2683 146.64 46.4813 155.95 41.0647C165.265 35.6452 180.418 35.6451 189.794 41.0645Z" fill="white"/>
                <g id="Bubble">
                    <g id="2-sakons 2">
                        <path id="Vector_7" d="M67.034 108.205L60.1913 133.742L109.19 146.871L116.033 121.334L67.034 108.205Z" fill="url(#paint1_radial_113308_336371)"/>
                        <g id="bubble 2">
                            <path id="Vector_8" opacity="0.22" d="M96.3922 62.5184C82.7659 54.6512 71.6783 60.9702 71.6337 76.6275C71.6043 86.9487 76.3773 98.7506 83.5335 107.852L81.3699 118.869L94.0514 117.864C94.7701 118.352 95.4964 118.816 96.2313 119.24C109.864 127.111 120.952 120.792 120.996 105.126C121.041 89.4602 110.025 70.3933 96.3922 62.5184Z" fill="#3BD1FF"/>
                            <path id="Vector_9" opacity="0.5" d="M96.2324 119.239L96.2194 119.23C95.4887 118.808 94.7668 118.348 94.0525 117.863L81.371 118.868L78.306 120.65L90.9876 119.644C91.7062 120.131 92.4325 120.594 93.162 121.018C100.023 124.979 106.238 125.348 110.726 122.74L113.799 120.959C109.309 123.567 103.093 123.199 96.2324 119.239Z" fill="#0078D4"/>
                            <path id="Vector_10" opacity="0.75" d="M81.3903 104.942C75.442 96.3219 71.6052 85.8801 71.6345 76.6277C71.6573 68.8496 74.4048 63.3754 78.8342 60.8008L75.7693 62.5828C71.3388 65.1563 68.5913 70.6305 68.5696 78.4086C68.5402 88.7308 73.3132 100.532 80.4694 109.634L78.3058 120.651L81.3707 118.869L83.5343 107.852C82.7928 106.91 82.0782 105.94 81.3903 104.942Z" fill="url(#paint2_linear_113308_336371)"/>
                            <path id="Vector_11" opacity="0.33" d="M93.3282 64.3047C79.7007 56.4331 68.6142 62.751 68.5696 78.4083C68.5402 88.7305 73.3132 100.531 80.4694 109.634L78.3058 120.651L90.9873 119.645C91.706 120.132 92.4323 120.595 93.1618 121.019C106.795 128.891 117.882 122.573 117.926 106.907C117.969 91.241 106.961 72.1708 93.3282 64.3047Z" fill="#B1F4FF"/>
                            <path id="Vector_12" d="M96.3935 62.5182C89.5363 58.5596 83.3227 58.1932 78.8346 60.8004L75.7697 62.5824C80.2567 59.973 86.4713 60.3405 93.3285 64.3002C106.961 72.1707 117.976 91.2495 117.931 106.908C117.909 114.69 115.161 120.166 110.731 122.741L113.799 120.959C118.23 118.385 120.975 112.914 121 105.126C121.041 89.4686 110.026 70.3931 96.3935 62.5182Z" fill="url(#paint3_linear_113308_336371)"/>
                            <g id="Group" opacity="0.8">
                                <path id="Vector_13" d="M109.469 96.4152L111.773 95.0801V99.5149L109.469 100.85V96.4152Z" fill="#2195DC"/>
                                <path id="Vector_14" d="M80.1528 79.4925L82.4578 78.1562L111.773 95.0813L109.469 96.4164L80.1528 79.4925Z" fill="#84ECFD"/>
                                <path id="Vector_15" d="M109.469 96.4161V100.851L80.1527 83.927V79.4922L109.469 96.4161Z" fill="#53C9ED"/>
                            </g>
                            <g id="Group_2" opacity="0.8">
                                <path id="Vector_16" d="M98.67 100.505L100.97 99.1699L100.957 103.605L98.6581 104.94L98.67 100.505Z" fill="#2195DC"/>
                                <path id="Vector_17" d="M80.1672 89.8206L82.4657 88.4844L100.973 99.1697L98.6731 100.505L80.1672 89.8206Z" fill="#84ECFD"/>
                                <path id="Vector_18" d="M98.6716 100.505L98.6597 104.939L80.1527 94.2552L80.1658 89.8203L98.6716 100.505Z" fill="#53C9ED"/>
                            </g>
                        </g>
                    </g>
                </g>
                <g id="CLU">
                    <path id="shadow in rectangle_2" d="M161.311 47.8398L180.986 53.1118L178.643 61.8553L158.968 56.5834L161.311 47.8398Z" fill="url(#paint4_radial_113308_336371)"/>
                    <g id="Group 427320280">
                        <path id="Vector_19" d="M186.351 47.8246C185.2 47.2451 184.625 47.8157 184.625 49.5366V53.3705C184.625 55.9774 183.496 56.6462 181.238 55.377V53.767C181.88 54.1205 182.336 54.1707 182.605 53.9173C182.874 53.664 183.009 53.0687 183.009 52.1314V48.4381C183.009 46.6403 183.559 45.8671 184.658 46.1184V46.0673C184.099 45.515 183.664 44.851 183.38 44.1188C183.096 43.3865 182.969 42.6026 183.009 41.8182V38.0737C183.009 36.4209 182.419 35.2364 181.238 34.5205V32.8848C182.302 33.4655 183.183 34.332 183.782 35.3864C184.38 36.4409 184.672 37.6416 184.625 38.8531V42.585C184.625 44.3399 185.2 45.5923 186.351 46.3421V47.8246Z" fill="#0078D4"/>
                        <path id="Vector_20" d="M163.124 45.1144C162.062 44.5414 161.182 43.6832 160.581 42.6366C159.981 41.59 159.685 40.3965 159.726 39.1906V35.3567C159.726 33.6356 159.151 32.4003 158 31.651V30.1683C159.151 30.7478 159.726 30.1597 159.726 28.4043V24.6727C159.726 22.0314 160.859 21.3478 163.124 22.6218V24.2576C161.951 23.6143 161.364 24.119 161.364 25.7718V29.5165C161.364 31.3056 160.811 32.0851 159.704 31.8551V31.9063C160.268 32.4513 160.707 33.1111 160.994 33.8409C161.28 34.5707 161.406 35.3535 161.364 36.1364V39.8297C161.331 40.6 161.465 41.3682 161.757 42.0819C162.06 42.6819 162.537 43.1772 163.124 43.5041V45.1144Z" fill="#0078D4"/>
                        <path id="Vector_21" d="M181.81 50.3495L163.702 39.8743V29.1543L181.81 39.6295L181.81 50.3495Z" fill="#0078D4"/>
                        <path id="Vector_22" d="M178.761 42.487L166.814 35.5892V33.75L178.761 40.6476V42.487Z" fill="#F8F8F8"/>
                        <path id="Vector_23" d="M175.651 44.4072L166.813 39.2845V37.4453L175.651 42.568V44.4072Z" fill="#F8F8F8"/>
                    </g>
                </g>
                <g id="Custom">
                    <path id="Vector_24" d="M64.4918 46.1552C60.1252 43.6323 56.1729 43.4013 53.3172 45.0606L50.5818 46.651C53.4375 44.9908 57.3917 45.2246 61.7563 47.7446C70.4303 52.7526 77.4391 64.8927 77.41 74.8582C77.3965 79.8137 75.6479 83.3002 72.828 84.9382L75.5635 83.3487C78.3833 81.7098 80.1319 78.2233 80.1464 73.2678C80.1746 63.3023 73.1696 51.1632 64.4918 46.1552Z" fill="url(#paint5_linear_113308_336371)"/>
                    <path id="Vector_25" d="M61.7566 47.7447C53.0836 42.7396 46.0282 46.7579 46.0001 56.7243C45.9719 66.6908 52.9808 78.8367 61.6547 83.8456C70.3287 88.8546 77.3822 84.8325 77.4103 74.8582C77.4385 64.884 70.4306 52.7527 61.7566 47.7447Z" fill="url(#paint6_linear_113308_336371)"/>
                    <path id="Vector_26" d="M71.5035 72.3861L68.936 72.1319L68.4809 73.7165L69.753 77.2369L68.1422 78.149L65.4689 75.1895L63.9164 75.0323C62.9742 77.7289 63.1042 77.1729 63.1022 77.9162L60.7948 76.5848L59.806 72.8412L58.2427 71.1994C57.3756 71.2469 56.5064 71.2469 55.6393 71.1994L54.0382 68.4145L55.2997 66.105L54.6631 63.8102L51.9015 61.1825L51.9093 58.5567L54.6738 59.004L55.321 57.5698L53.981 53.8262L55.6063 52.9199L58.2398 55.8785L59.8428 56.1104C60.7453 53.5555 60.5764 53.9077 60.7443 53.8117L63.0072 55.1178L64.0066 58.6285L65.5757 60.0578L68.1782 60.0248L69.7588 62.8874L68.4149 65.1114L69.0068 67.2559C71.7306 69.9088 71.3415 69.5013 71.5084 69.7574L71.5035 72.3861ZM61.6952 69.5216C63.5127 70.5716 64.9944 69.7322 65.0003 67.6382C64.9394 66.5001 64.6106 65.3926 64.0404 64.4058C63.4703 63.4189 62.675 62.5808 61.7195 61.9597C59.9011 60.9098 58.4203 61.7511 58.4203 63.8402C58.4792 64.9796 58.8071 66.0887 59.3772 67.0769C59.9472 68.0651 60.7433 68.9042 61.7001 69.5255" fill="#DBFAD9"/>
                </g>
                <g id="Group 427320278">
                    <path id="Vector_27" d="M117.24 36.1934L115.718 41.873L130.976 45.9614L132.498 40.2818L117.24 36.1934Z" fill="url(#paint7_radial_113308_336371)"/>
                    <path id="Vector_28" d="M107.579 36.0009L106 41.8926L121.11 45.9412L122.689 40.0495L107.579 36.0009Z" fill="url(#paint8_radial_113308_336371)"/>
                </g>
                <g id="Group 427320275">
                    <path id="Vector_29" d="M170.907 88.2484C170.907 82.1733 166.674 74.7304 161.453 71.6242C156.232 68.5181 152 70.9249 152 77C152 83.0751 156.232 90.5181 161.453 93.6242C166.674 96.7304 170.907 94.3236 170.907 88.2484Z" fill="#0078D4"/>
                    <path id="Vector_30" d="M161.453 72.6953L161.452 72.6947C156.741 69.8915 152.921 72.0636 152.921 77.546V77.5473C152.921 83.0297 156.741 89.7465 161.452 92.5497L161.453 92.5503C166.165 95.3535 169.985 93.1814 169.985 87.699V87.6978C169.985 82.2153 166.165 75.4985 161.453 72.6953Z" fill="#0078D4"/>
                    <path id="Vector_31" d="M158.895 87.2084C158.208 86.8419 157.521 86.305 156.936 85.6763C156.722 85.3694 156.561 85.0605 156.463 84.7705C156.366 84.4804 156.334 84.2161 156.37 83.9952V80.5046C156.37 79.9338 156.066 79.4509 155.457 79.0888V78.2161C156.066 78.5782 156.37 78.4573 156.37 77.8536V74.4289C156.335 74.1609 156.367 73.93 156.464 73.751C156.562 73.5719 156.722 73.4488 156.936 73.3893C157.512 73.4364 158.206 73.7192 158.895 74.1881V75.0607C158.242 74.6723 157.893 74.7337 157.893 75.3033V78.6583C157.893 79.4307 157.589 79.719 156.942 79.536C157.275 79.8689 157.546 80.2412 157.716 80.6012C157.886 80.9612 157.948 81.2911 157.893 81.5452V84.8684C157.875 85.0935 157.951 85.3731 158.112 85.6695C158.209 85.7996 158.325 85.9241 158.453 86.0346C158.58 86.1452 158.716 86.2392 158.85 86.3106L158.895 87.2096V87.2084Z" fill="white"/>
                    <path id="Vector_32" d="M163.699 77.4493C164.386 77.8158 165.073 78.3527 165.658 78.9814C165.872 79.2883 166.033 79.5972 166.13 79.8872C166.228 80.1772 166.26 80.4416 166.224 80.6624V84.1531C166.224 84.7239 166.528 85.2068 167.137 85.5689V86.4416C166.528 86.0795 166.224 86.2003 166.224 86.8041V90.1946C166.26 90.4634 166.228 90.6951 166.13 90.8746C166.033 91.054 165.872 91.1774 165.658 91.2366C165.088 91.2076 164.394 90.9373 163.699 90.4745V89.6018C164.352 89.9903 164.701 89.9289 164.701 89.3593V85.9994C164.701 85.227 165.005 84.9387 165.652 85.1217C165.319 84.7888 165.048 84.4165 164.878 84.0565C164.707 83.6965 164.646 83.3666 164.701 83.1125V79.7893C164.718 79.5642 164.642 79.2846 164.482 78.9882C164.385 78.8581 164.268 78.7336 164.141 78.623C164.014 78.5125 163.878 78.4184 163.743 78.3471L163.699 77.4493Z" fill="white"/>
                </g>
                <g id="Group 427320277">
                    <path id="Vector_33" d="M132.979 27.9416C132.979 28.1974 132.979 28.4429 132.979 28.668C132.979 28.8931 132.928 29.1796 132.898 29.4252C132.801 30.1366 132.591 30.8276 132.273 31.4716C132.219 31.5844 132.157 31.6937 132.089 31.799C132.028 31.9116 131.956 32.0241 131.895 32.1162C131.766 32.3139 131.619 32.4989 131.455 32.6687C131.213 32.9354 130.934 33.1662 130.626 33.3543C130.537 33.4186 130.441 33.4735 130.34 33.518L131.455 37.5187L126.789 33.8249C125.957 33.5963 125.162 33.2518 124.426 32.8017C123.19 32.0696 122.07 31.1594 121.1 30.1005C121.036 27.9562 120.538 25.847 119.637 23.9C118.799 22.0163 117.685 20.268 116.332 18.7124L115.933 18.2724V18.0473C115.933 15.3563 116.885 13.4429 118.419 12.5528C118.529 12.4793 118.645 12.4176 118.767 12.3686C118.901 12.3008 119.041 12.2493 119.187 12.2151C119.295 12.1673 119.408 12.133 119.525 12.1128C119.579 12.1061 119.634 12.1061 119.688 12.1128C120.024 12.0345 120.367 11.9967 120.711 12.0002C120.931 11.9977 121.15 12.0148 121.366 12.0514C121.475 12.0415 121.585 12.0415 121.694 12.0514C121.868 12.0514 122.021 12.1128 122.195 12.1435C122.833 12.3108 123.451 12.5475 124.037 12.8495L124.548 13.136C124.978 13.3918 125.408 13.6783 125.848 13.9955L126.247 14.3229C126.534 14.5489 126.807 14.7915 127.065 15.0494C127.198 15.1619 127.331 15.3052 127.464 15.4177C127.914 15.903 128.338 16.4119 128.733 16.9423C128.907 17.1469 129.071 17.372 129.245 17.5971C129.249 17.6131 129.256 17.6279 129.267 17.6404C129.277 17.6529 129.291 17.6626 129.306 17.6687C129.378 17.7915 129.48 17.9245 129.562 18.0575C129.644 18.1906 129.613 18.0575 129.623 18.1496C129.767 18.3543 129.9 18.5589 130.033 18.7635C130.166 18.9682 130.442 19.4184 130.606 19.7356C130.958 20.3396 131.272 20.965 131.547 21.608L131.741 22.0787C131.926 22.5187 132.069 22.9484 132.212 23.3884C132.476 24.1283 132.681 24.8878 132.826 25.6599C132.826 25.844 132.887 26.0282 132.918 26.2022C132.924 26.2532 132.924 26.3046 132.918 26.3556C132.965 26.7359 132.993 27.1185 133 27.5016C132.979 27.6551 132.979 27.8188 132.979 27.9416Z" fill="#0078D4"/>
                    <path id="Vector_34" d="M123.104 17L123.39 24.0679L125.273 24.9714L125.57 18.1653L123.104 17ZM124.362 25.4949C122.52 24.6505 122.572 26.9727 124.362 27.8171C126.153 28.6615 126.153 26.3562 124.362 25.4949Z" fill="white"/>
                    <path id="Vector_35" d="M111.554 16.2377C116.261 18.9492 120.067 25.5385 120.046 30.9512C120.026 36.3639 116.199 38.5535 111.492 35.8318C111.093 35.5965 110.705 35.3407 110.336 35.0747L106.417 35.5044L106.888 31.6163C104.532 28.6023 103.173 24.9296 103 21.1081C103.01 15.6954 106.837 13.4955 111.554 16.2377Z" fill="#0078D4"/>
                    <path id="Vector_36" d="M110.18 27.2824C109.984 26.674 110.016 26.0146 110.272 25.4285C110.429 25.1985 110.656 25.0262 110.92 24.938C111.175 24.8563 111.409 24.7234 111.61 24.5473C111.772 24.3174 111.859 24.043 111.859 23.7617C111.859 23.4804 111.772 23.206 111.61 22.9761C111.336 22.5544 110.93 22.2356 110.455 22.07C109.983 21.9078 109.471 21.9078 109 22.07V20C110.18 20.0403 111.303 20.5173 112.151 21.3384C112.785 21.8796 113.264 22.5796 113.539 23.3668C113.756 24.0009 113.796 24.6819 113.655 25.3371C113.29 26.6339 111.951 26.2515 111.669 27.0745C111.577 27.4459 111.609 27.8369 111.76 28.1885L110.18 27.2824ZM111.062 30.8155C110.744 30.6304 110.476 30.3708 110.28 30.059C110.088 29.744 109.974 29.3877 109.948 29.0198C109.948 28.3381 110.446 28.1885 111.062 28.5294C112.516 29.3607 112.525 31.6634 111.062 30.8155Z" fill="white"/>
                </g>
            </g>
        </g>
    </g>
    <defs>
        <radialGradient id="paint0_radial_113308_336371" cx="0" cy="0" r="1" gradientUnits="userSpaceOnUse" gradientTransform="translate(160.804 100.514) rotate(105) scale(4.85306 10.9205)">
            <stop stop-opacity="0.15"/>
            <stop offset="1" stop-opacity="0"/>
        </radialGradient>
        <radialGradient id="paint1_radial_113308_336371" cx="0" cy="0" r="1" gradientUnits="userSpaceOnUse" gradientTransform="translate(88.1448 127.831) rotate(105) scale(13.2158 25.3589)">
            <stop stop-opacity="0.1"/>
            <stop offset="1" stop-opacity="0"/>
        </radialGradient>
        <linearGradient id="paint2_linear_113308_336371" x1="139.234" y1="1029.96" x2="1583.9" y2="2852.26" gradientUnits="userSpaceOnUse">
            <stop stop-color="#45CAF2"/>
            <stop offset="0.672" stop-color="#45CAF2"/>
            <stop offset="1" stop-color="#156AB3"/>
        </linearGradient>
        <linearGradient id="paint3_linear_113308_336371" x1="98.3847" y1="61.0721" x2="98.3847" y2="116.374" gradientUnits="userSpaceOnUse">
            <stop stop-color="#45CAF2"/>
            <stop offset="0.516" stop-color="#32B0E7"/>
            <stop offset="0.818" stop-color="#32B0E7"/>
            <stop offset="1" stop-color="#156AB3"/>
        </linearGradient>
        <radialGradient id="paint4_radial_113308_336371" cx="0" cy="0" r="1" gradientUnits="userSpaceOnUse" gradientTransform="translate(169.977 54.8476) rotate(105) scale(4.526 10.1846)">
            <stop stop-opacity="0.15"/>
            <stop offset="1" stop-opacity="0"/>
        </radialGradient>
        <linearGradient id="paint5_linear_113308_336371" x1="65.3641" y1="44.001" x2="65.3641" y2="84.9391" gradientUnits="userSpaceOnUse">
            <stop stop-color="#A4E675"/>
            <stop offset="0.498" stop-color="#86D633"/>
            <stop offset="0.75" stop-color="#4E9528"/>
            <stop offset="0.995" stop-color="#0B6A0B"/>
        </linearGradient>
        <linearGradient id="paint6_linear_113308_336371" x1="74.6749" y1="83.6457" x2="48.7355" y2="47.9436" gradientUnits="userSpaceOnUse">
            <stop stop-color="#157315"/>
            <stop offset="0.241" stop-color="#4E9528"/>
            <stop offset="1" stop-color="#86D633"/>
        </linearGradient>
        <radialGradient id="paint7_radial_113308_336371" cx="0" cy="0" r="1" gradientUnits="userSpaceOnUse" gradientTransform="translate(124.151 41.1657) rotate(105) scale(2.93979 7.89809)">
            <stop stop-opacity="0.15"/>
            <stop offset="1" stop-opacity="0"/>
        </radialGradient>
        <radialGradient id="paint8_radial_113308_336371" cx="0" cy="0" r="1" gradientUnits="userSpaceOnUse" gradientTransform="translate(114.385 41.0618) rotate(105) scale(3.04958 7.82142)">
            <stop stop-opacity="0.15"/>
            <stop offset="1" stop-opacity="0"/>
        </radialGradient>
        <clipPath id="clip0_113308_336371">
            <rect width="242" height="138" fill="white"/>
        </clipPath>
    </defs>
</svg>
