<svg width="260" height="153" viewBox="0 0 260 153" fill="none"
    xmlns="http://www.w3.org/2000/svg">
    <path d="M0 8C0 3.58172 3.58172 0 8 0H252C256.418 0 260 3.58172 260 8V153H0V8Z" fill="#F2F2F2"/>
    <path d="M194.175 66.2879L194.162 70.9342C194.147 76.152 190.703 81.3619 183.822 85.3429C169.978 93.3522 147.447 93.3523 133.505 85.3389C126.489 81.306 122.985 76.0117 123 70.7263L123.013 66.08C122.998 71.3655 126.502 76.6596 133.519 80.6927C147.46 88.7061 169.991 88.706 183.835 80.6967C190.716 76.7156 194.161 71.5057 194.175 66.2879Z" fill="#C8C8C8"/>
    <path d="M183.669 52.7513C197.613 60.8109 197.687 73.8789 183.833 81.9388C169.987 89.9943 147.451 89.9944 133.507 81.9348C119.563 73.8751 119.49 60.8071 133.336 52.7517C147.189 44.6917 169.725 44.6916 183.669 52.7513Z" fill="white"/>
    <path d="M142.182 58.294L175.255 67.156L171.317 81.8537L138.243 72.9917L142.182 58.294Z" fill="url(#paint0_radial)"/>
    <path d="M178.426 59.4674C176.361 58.4274 175.328 59.4514 175.327 62.5395V69.4194C175.327 74.0974 173.302 75.2977 169.25 73.0201V70.1309C170.402 70.7653 171.22 70.8553 171.703 70.4007C172.186 69.9461 172.428 68.8778 172.428 67.1959V60.5682C172.428 57.3421 173.415 55.9546 175.387 56.4056V56.3139C174.385 55.3227 173.604 54.1312 173.094 52.8173C172.584 51.5033 172.357 50.0966 172.428 48.689V41.9696C172.428 39.0035 171.369 36.8781 169.25 35.5933V32.658C171.16 33.7002 172.741 35.255 173.814 37.1473C174.888 39.0395 175.412 41.1941 175.327 43.3681V50.065C175.327 53.2141 176.36 55.4615 178.426 56.8071V59.4674Z" fill="#0078D4"/>
    <path d="M145.18 59.4783C143.274 58.4501 141.694 56.9102 140.616 55.0321C139.539 53.1539 139.007 51.0122 139.082 48.8482V41.9683C139.082 38.8797 138.049 36.6631 135.984 35.3185V32.6579C138.049 33.6976 139.082 32.6425 139.082 29.4924V22.7959C139.082 18.0563 141.114 16.8296 145.18 19.1157V22.0511C143.074 20.8967 142.021 21.8025 142.022 24.7683V31.4882C142.022 34.6987 141.028 36.0976 139.042 35.6848V35.7766C140.053 36.7547 140.843 37.9386 141.357 39.2482C141.871 40.5578 142.097 41.9626 142.021 43.3675V49.9951C141.962 51.3773 142.203 52.7558 142.726 54.0366C143.271 55.1133 144.125 56.0022 145.18 56.5887V59.4783Z" fill="#0078D4"/>
    <path d="M168.713 52.6982C169.635 55.9035 169.525 58.7195 168.413 60.2291C166.262 63.1505 164.13 62.8937 162.718 62.7193C162.438 62.7198 162.162 62.6484 161.917 62.512C161.327 62.1323 160.897 61.5511 160.704 60.8769C160.428 59.9428 160.75 59.246 161.421 59.3173C161.53 59.3279 161.643 59.3414 161.759 59.3568C162.964 59.5028 164.469 59.6866 166.157 57.386C166.853 56.4436 166.896 54.5794 166.275 52.4101C165.66 50.2123 164.508 48.2016 162.924 46.5585C162.564 48.7271 161.805 51.1149 160.425 52.6381C159.688 53.4196 158.824 54.0709 157.87 54.5647C158.008 55.1033 158.175 55.6342 158.37 56.155C158.909 57.4643 158.284 58.4167 157.251 57.8201C156.746 57.4975 156.357 57.0232 156.14 56.4654C156.008 56.152 155.866 55.7409 155.713 55.2503C154.185 55.3748 152.659 54.9923 151.37 54.1618C149.381 52.9991 147.873 51.1649 147.116 48.9892C146.616 47.4755 145.947 43.3543 148.801 41.016C150.097 39.9368 151.711 39.3142 153.396 39.2443C153.52 37.6683 153.751 36.1026 154.086 34.5577C151.716 33.1641 150.005 31.9614 149.85 31.8518C149.485 31.5825 149.189 31.2293 148.987 30.8219C148.786 30.4145 148.686 29.9648 148.695 29.5106C148.778 28.7496 149.417 28.5057 150.154 29.0241C151.45 29.9205 153.106 30.9724 154.73 31.9042C155.289 29.851 155.817 28.4197 155.862 28.2908C156.052 27.776 156.561 27.68 157.104 27.9963C158.005 28.5163 158.639 29.9134 158.338 30.718C158.33 30.7439 157.943 31.797 157.486 33.382C159.459 34.4381 161.582 35.185 163.782 35.5967C164.526 35.6938 165.244 36.608 165.475 37.4402C165.736 38.3702 165.399 39.0499 164.721 38.9616C162.282 38.6347 159.384 37.4078 156.789 36.0614C156.538 37.1669 156.308 38.3632 156.154 39.5641C157.759 40.01 159.277 40.7226 160.646 41.6721C160.657 41.5102 160.658 41.4195 160.658 41.4106C160.671 40.5978 161.257 40.2745 161.99 40.708C162.377 40.9559 162.698 41.2949 162.924 41.6954C163.15 42.0958 163.274 42.5455 163.286 43.005C163.286 43.0551 163.274 43.3054 163.251 43.703C163.295 43.746 163.337 43.7825 163.382 43.8208C165.965 46.2145 167.814 49.2934 168.713 52.6982ZM151.49 51.1438C151.968 51.472 152.509 51.7001 153.078 51.8141C153.647 51.9282 154.233 51.926 154.802 51.8076C154.11 48.839 153.644 45.8224 153.407 42.7836C152.459 43.0238 151.577 43.4747 150.827 44.1029C149.488 45.1985 149.134 46.8712 149.741 48.7118C150.042 49.6919 150.657 50.5462 151.49 51.1438ZM158.482 49.8197C159.416 48.6082 160.045 46.3647 160.344 44.5035C159.032 43.5874 157.539 42.9646 155.965 42.6776C156.085 45.5136 156.44 48.3349 157.025 51.1126C157.564 50.7459 158.053 50.3113 158.482 49.8197Z" fill="#0078D4"/>
    <path d="M90.0288 108.218L84.4512 129.034L135.181 142.627L140.758 121.811L90.0288 108.218Z" fill="url(#paint1_radial)"/>
    <path opacity="0.33" d="M114.016 45.4221C98.4216 36.4188 85.7328 43.6503 85.6818 61.5686C85.6482 73.3802 91.1104 86.8864 99.3 97.3019L96.824 109.91L111.337 108.76C112.159 109.319 112.99 109.849 113.831 110.334C129.433 119.342 142.122 112.111 142.173 94.1826C142.224 76.2544 129.617 54.4341 114.016 45.4221Z" fill="#B1F4FF"/>
    <path opacity="0.5" d="M113.829 110.334L113.815 110.324C112.978 109.841 112.152 109.315 111.335 108.76L96.822 109.91L93.3145 111.949L107.827 110.798C108.65 111.356 109.481 111.886 110.316 112.371C118.167 116.904 125.28 117.326 130.416 114.341L133.933 112.303C128.794 115.287 121.681 114.867 113.829 110.334Z" fill="#0078D4"/>
    <path opacity="0.66" d="M96.8461 93.9711C90.0388 84.1068 85.6479 72.1571 85.6815 61.5686C85.7076 52.6673 88.8518 46.4026 93.9208 43.4562L90.4133 45.4955C85.3431 48.4406 82.1989 54.7054 82.174 63.6067C82.1404 75.4195 87.6026 88.9245 95.7922 99.3412L93.3161 111.949L96.8237 109.91L99.2997 97.3019C98.4511 96.2236 97.6332 95.1133 96.8461 93.9711Z" fill="url(#paint2_linear)"/>
    <path opacity="0.33" d="M110.508 47.4664C94.9125 38.4581 82.225 45.6884 82.174 63.6067C82.1404 75.4195 87.6026 88.9245 95.7922 99.3412L93.3161 111.949L107.829 110.798C108.651 111.356 109.483 111.886 110.317 112.371C125.919 121.379 138.608 114.149 138.657 96.2207C138.707 78.2924 126.109 56.4685 110.508 47.4664Z" fill="#B1F4FF"/>
    <path d="M114.014 45.4221C106.167 40.8919 99.0558 40.4726 93.9196 43.4562L90.4121 45.4955C95.5471 42.5094 102.659 42.9299 110.507 47.4614C126.108 56.4685 138.713 78.3024 138.661 96.2219C138.636 105.128 135.492 111.394 130.422 114.342L133.933 112.302C139.003 109.356 142.145 103.095 142.174 94.1826C142.221 76.2643 129.616 54.4342 114.014 45.4221Z" fill="url(#paint3_linear)"/>
    <g opacity="0.8">
        <path d="M128.982 84.2162L131.619 82.6883V87.7636L128.982 89.2915V84.2162Z" fill="#2195DC"/>
        <path d="M95.4277 64.8485L98.0655 63.3193L131.614 82.6884L128.977 84.2163L95.4277 64.8485Z" fill="#84ECFD"/>
        <path d="M128.977 84.2165V89.2917L95.4277 69.9239V64.8486L128.977 84.2165Z" fill="#40B9DE"/>
    </g>
    <g opacity="0.8">
        <path d="M116.625 88.8951L119.257 87.3671L119.242 92.4424L116.611 93.9703L116.625 88.8951Z" fill="#2195DC"/>
        <path d="M95.4453 76.6678L98.0756 75.1387L119.255 87.3671L116.624 88.895L95.4453 76.6678Z" fill="#84ECFD"/>
        <path d="M116.625 88.895L116.611 93.9703L95.4316 81.7431L95.4466 76.6679L116.625 88.895Z" fill="#40B9DE"/>
    </g>
    <rect x="72.4922" y="109.922" width="27.3477" height="12.8039" transform="rotate(15 72.4922 109.922)" fill="url(#paint4_radial)"/>
    <path d="M80.4022 29.9911C76.0356 27.4682 72.0833 27.2373 69.2276 28.8966L66.4922 30.487C69.3479 28.8267 73.3021 29.0606 77.6667 31.5806C86.3407 36.5885 93.3495 48.7286 93.3204 58.6941C93.3069 63.6497 91.5583 67.1361 88.7384 68.7741L91.4739 67.1847C94.2937 65.5457 96.0423 62.0593 96.0568 57.1037C96.085 47.1382 89.08 34.9991 80.4022 29.9911Z" fill="url(#paint5_linear)"/>
    <path d="M77.6668 31.5814C68.9938 26.5763 61.9384 30.5945 61.9102 40.561C61.8821 50.5274 68.8909 62.6733 77.5649 67.6823C86.2389 72.6912 93.2923 68.6691 93.3205 58.6949C93.3486 48.7206 86.3408 36.5893 77.6668 31.5814Z" fill="url(#paint6_linear)"/>
    <path d="M87.4146 56.2216L84.847 55.9674L84.3919 57.552L85.664 61.0724L84.0533 61.9845L81.3799 59.025L79.8274 58.8678C78.8852 61.5644 79.0152 61.0084 79.0133 61.7516L76.7058 60.4203L75.717 56.6767L74.1537 55.0349C73.2866 55.0824 72.4175 55.0824 71.5503 55.0349L69.9492 52.25L71.2107 49.9405L70.5741 47.6457L67.8125 45.018L67.8203 42.3922L70.5848 42.8395L71.232 41.4053L69.892 37.6617L71.5173 36.7554L74.1508 39.714L75.7538 39.9459C76.6563 37.391 76.4874 37.7432 76.6553 37.6472L78.9182 38.9533L79.9176 42.464L81.4867 43.8933L84.0892 43.8603L85.6699 46.7229L84.3259 48.9469L84.9178 51.0914C87.6416 53.7443 87.2525 53.3368 87.4194 53.5929L87.4146 56.2216ZM77.6062 53.3571C79.4237 54.4071 80.9054 53.5677 80.9113 51.4737C80.8504 50.3356 80.5216 49.2281 79.9514 48.2413C79.3813 47.2544 78.5861 46.4163 77.6305 45.7952C75.8121 44.7453 74.3313 45.5866 74.3313 47.6757C74.3902 48.8151 74.7181 49.9242 75.2882 50.9124C75.8583 51.9006 76.6543 52.7397 77.6111 53.361" fill="#E5FFE3"/>
    <defs>
        <radialGradient id="paint0_radial" cx="0" cy="0" r="1" gradientUnits="userSpaceOnUse" gradientTransform="translate(156.749 70.0738) rotate(105) scale(7.60808 17.12)">
            <stop stop-opacity="0.15"/>
            <stop offset="1" stop-opacity="0"/>
        </radialGradient>
        <radialGradient id="paint1_radial" cx="0" cy="0" r="1" gradientUnits="userSpaceOnUse" gradientTransform="translate(112.654 125.667) rotate(105) scale(10.7725 26.2545)">
            <stop stop-opacity="0.15"/>
            <stop offset="1" stop-opacity="0"/>
        </radialGradient>
        <linearGradient id="paint2_linear" x1="163.042" y1="1152.56" x2="1816.32" y2="3238.02" gradientUnits="userSpaceOnUse">
            <stop stop-color="#45CAF2"/>
            <stop offset="0.672" stop-color="#45CAF2"/>
            <stop offset="1" stop-color="#156AB3"/>
        </linearGradient>
        <linearGradient id="paint3_linear" x1="116.293" y1="43.7672" x2="116.293" y2="107.055" gradientUnits="userSpaceOnUse">
            <stop stop-color="#45CAF2"/>
            <stop offset="0.516" stop-color="#32B0E7"/>
            <stop offset="0.818" stop-color="#32B0E7"/>
            <stop offset="1" stop-color="#156AB3"/>
        </linearGradient>
        <radialGradient id="paint4_radial" cx="0" cy="0" r="1" gradientUnits="userSpaceOnUse" gradientTransform="translate(86.166 116.323) rotate(90) scale(6.40197 13.6738)">
            <stop stop-opacity="0.1"/>
            <stop offset="1" stop-opacity="0"/>
        </radialGradient>
        <linearGradient id="paint5_linear" x1="81.2745" y1="27.837" x2="81.2745" y2="68.7751" gradientUnits="userSpaceOnUse">
            <stop stop-color="#A4E675"/>
            <stop offset="0.498" stop-color="#86D633"/>
            <stop offset="0.75" stop-color="#4E9528"/>
            <stop offset="0.995" stop-color="#0B6A0B"/>
        </linearGradient>
        <linearGradient id="paint6_linear" x1="90.5851" y1="67.4824" x2="56.1753" y2="21.4275" gradientUnits="userSpaceOnUse">
            <stop stop-color="#157315"/>
            <stop offset="0.298703" stop-color="#4E9528"/>
            <stop offset="1" stop-color="#86D633"/>
        </linearGradient>
    </defs>
</svg>
